<svg viewBox="0 0 720 270" xmlns="http://www.w3.org/2000/svg" font-family="Helvetica, Arial, 'Hiragino Kaku Gothic ProN', Meiryo, sans-serif" role="img" aria-label="チャットボットのパイプラインと部品ごとの評価指標">
  <rect width="720" height="270" fill="#ffffff"/>

  <rect x="20" y="40" width="60" height="44" rx="4" fill="#EEF2F5" stroke="#D4DCE2"/>
  <text x="50" y="66" font-size="12" fill="#15232E" text-anchor="middle">質問</text>
  <line x1="80" y1="62" x2="96" y2="62" stroke="#6B7A86" stroke-width="1.5"/>
  <polygon points="100,62 92,58 92,66" fill="#6B7A86"/>

  <rect x="100" y="40" width="140" height="44" rx="4" fill="#FCEFE7" stroke="#E0662C"/>
  <text x="170" y="66" font-size="12" fill="#E0662C" text-anchor="middle">範囲判定</text>
  <line x1="240" y1="62" x2="256" y2="62" stroke="#6B7A86" stroke-width="1.5"/>
  <polygon points="260,62 252,58 252,66" fill="#6B7A86"/>

  <rect x="260" y="40" width="140" height="44" rx="4" fill="#FCEFE7" stroke="#E0662C"/>
  <text x="330" y="66" font-size="12" fill="#E0662C" text-anchor="middle">検索</text>
  <line x1="400" y1="62" x2="416" y2="62" stroke="#6B7A86" stroke-width="1.5"/>
  <polygon points="420,62 412,58 412,66" fill="#6B7A86"/>

  <rect x="420" y="40" width="150" height="44" rx="4" fill="#E3EDFB" stroke="#1E6FD9"/>
  <text x="495" y="66" font-size="12" fill="#1E6FD9" text-anchor="middle">生成</text>
  <line x1="570" y1="62" x2="586" y2="62" stroke="#6B7A86" stroke-width="1.5"/>
  <polygon points="590,62 582,58 582,66" fill="#6B7A86"/>

  <rect x="590" y="40" width="70" height="44" rx="4" fill="#EEF2F5" stroke="#D4DCE2"/>
  <text x="625" y="66" font-size="12" fill="#15232E" text-anchor="middle">回答</text>

  <!-- 部品ごとの指標 -->
  <line x1="170" y1="84" x2="170" y2="100" stroke="#6B7A86" stroke-width="1.2" stroke-dasharray="3 3"/>
  <rect x="100" y="102" width="140" height="80" rx="4" fill="#EEF2F5" stroke="#D4DCE2"/>
  <text x="170" y="122" font-size="10" fill="#3D4E5C" text-anchor="middle">過剰拒否率</text>
  <text x="170" y="138" font-size="10" fill="#3D4E5C" text-anchor="middle">通過率（範囲外）</text>
  <text x="170" y="154" font-size="10" fill="#3D4E5C" text-anchor="middle">混同行列</text>
  <text x="170" y="172" font-size="9" fill="#6B7A86" text-anchor="middle">判定：機械</text>

  <line x1="330" y1="84" x2="330" y2="100" stroke="#6B7A86" stroke-width="1.2" stroke-dasharray="3 3"/>
  <rect x="260" y="102" width="140" height="80" rx="4" fill="#EEF2F5" stroke="#D4DCE2"/>
  <text x="330" y="122" font-size="10" fill="#3D4E5C" text-anchor="middle">Recall@k</text>
  <text x="330" y="138" font-size="10" fill="#3D4E5C" text-anchor="middle">MRR、nDCG</text>
  <text x="330" y="154" font-size="10" fill="#3D4E5C" text-anchor="middle">（質問, 正解パッセージ）</text>
  <text x="330" y="172" font-size="9" fill="#6B7A86" text-anchor="middle">判定：機械</text>

  <line x1="495" y1="84" x2="495" y2="100" stroke="#6B7A86" stroke-width="1.2" stroke-dasharray="3 3"/>
  <rect x="420" y="102" width="150" height="80" rx="4" fill="#EEF2F5" stroke="#D4DCE2"/>
  <text x="495" y="120" font-size="10" fill="#3D4E5C" text-anchor="middle">正確さ（正解との一致）</text>
  <text x="495" y="135" font-size="10" fill="#3D4E5C" text-anchor="middle">忠実さ（主張の支持率）</text>
  <text x="495" y="150" font-size="10" fill="#3D4E5C" text-anchor="middle">有用性（rubric）・形式</text>
  <text x="495" y="172" font-size="9" fill="#6B7A86" text-anchor="middle">判定：機械 / LLM（人手で検証）</text>

  <!-- 通し -->
  <line x1="100" y1="204" x2="660" y2="204" stroke="#6B7A86" stroke-width="1.2"/>
  <line x1="100" y1="198" x2="100" y2="204" stroke="#6B7A86" stroke-width="1.2"/>
  <line x1="660" y1="198" x2="660" y2="204" stroke="#6B7A86" stroke-width="1.2"/>
  <text x="380" y="224" font-size="11" fill="#3D4E5C" text-anchor="middle">通し：タスク成功率（オフライン）</text>
  <text x="380" y="242" font-size="11" fill="#3D4E5C" text-anchor="middle">本番：引き継ぎ率、言い直し率、A/B テスト（オンライン）</text>
</svg>
